# xmcd CD database file
#
# Track frame offsets:
#	150
#	14393
#	24360
#	34693
#	45145
#	54973
#	66230
#	79550
#	91385
#	101768
#	113025
#	124778
#	138790
#	147795
#	158965
#	169993
#
# Disc length: 2409 seconds
#
# Revision: 5
# Processed by: cddbd v1.5.2PL0 Copyright (c) Steve Scherf et al.
# Submitted via: CDex 1.51
#
DISCID=c3096710
DTITLE=Big Sandy and His Fly-Rite Boys - Jumping from 6 to 6
DYEAR=1994
DGENRE=Western Swing
TTITLE0=Jumping from 6 to 6
TTITLE1=Different Girl
TTITLE2=True Blue
TTITLE3=Someone Like You
TTITLE4=When I Found You
TTITLE5=Who, Tell Me Who?
TTITLE6=Weary Blues from Waitin'
TTITLE7=Hi-Billy Music
TTITLE8=This Ain't a Good Time
TTITLE9=Barnyard Beatnik
TTITLE10=Honey Stick Around a While
TTITLE11=Honky Tonk Queen
TTITLE12=This Heart o' Mine
TTITLE13=Lookin' For A "Love Me" Gal
TTITLE14=Foothill Boogie
TTITLE15=Juiced
EXTD=YEAR: 1994
EXTT0=
EXTT1=
EXTT2=
EXTT3=
EXTT4=
EXTT5=
EXTT6=
EXTT7=
EXTT8=
EXTT9=
EXTT10=
EXTT11=
EXTT12=
EXTT13=
EXTT14=
EXTT15=
PLAYORDER=
